<mxfile host="app.diagrams.net" modified="2023-06-24T20:44:01.109Z" agent="Mozilla/5.0 (Windows NT 10.0; Win64; x64) AppleWebKit/537.36 (KHTML, like Gecko) Chrome/114.0.0.0 Safari/537.36" etag="IqD6-HVkqpF1B1g-VCML" version="21.5.0" type="device">
  <diagram name="PÃ¡gina-1" id="hhaaNA7VuKbHylU3LEG5">
    <mxGraphModel dx="954" dy="584" grid="1" gridSize="10" guides="1" tooltips="1" connect="1" arrows="1" fold="1" page="1" pageScale="1" pageWidth="827" pageHeight="1169" math="0" shadow="0">
      <root>
        <mxCell id="0" />
        <mxCell id="1" parent="0" />
        <mxCell id="xtmOlTIrvWH5SZ30aOi--9" style="rounded=0;orthogonalLoop=1;jettySize=auto;html=1;exitX=1;exitY=0.25;exitDx=0;exitDy=0;exitPerimeter=0;fontFamily=Helvetica;fontSize=12;fontColor=default;" edge="1" parent="1" source="xtmOlTIrvWH5SZ30aOi--1" target="xtmOlTIrvWH5SZ30aOi--2">
          <mxGeometry relative="1" as="geometry" />
        </mxCell>
        <mxCell id="xtmOlTIrvWH5SZ30aOi--10" style="rounded=0;orthogonalLoop=1;jettySize=auto;html=1;exitX=1;exitY=0.5;exitDx=0;exitDy=0;exitPerimeter=0;entryX=0.005;entryY=0.63;entryDx=0;entryDy=0;entryPerimeter=0;fontFamily=Helvetica;fontSize=12;fontColor=default;" edge="1" parent="1" source="xtmOlTIrvWH5SZ30aOi--1" target="xtmOlTIrvWH5SZ30aOi--3">
          <mxGeometry relative="1" as="geometry" />
        </mxCell>
        <mxCell id="xtmOlTIrvWH5SZ30aOi--12" style="rounded=0;orthogonalLoop=1;jettySize=auto;html=1;exitX=1;exitY=0.75;exitDx=0;exitDy=0;exitPerimeter=0;entryX=0.005;entryY=0.63;entryDx=0;entryDy=0;entryPerimeter=0;fontFamily=Helvetica;fontSize=12;fontColor=default;" edge="1" parent="1" source="xtmOlTIrvWH5SZ30aOi--1" target="xtmOlTIrvWH5SZ30aOi--5">
          <mxGeometry relative="1" as="geometry" />
        </mxCell>
        <mxCell id="xtmOlTIrvWH5SZ30aOi--13" style="rounded=0;orthogonalLoop=1;jettySize=auto;html=1;exitX=1;exitY=1;exitDx=0;exitDy=0;exitPerimeter=0;entryX=0.08;entryY=0.375;entryDx=0;entryDy=0;entryPerimeter=0;fontFamily=Helvetica;fontSize=12;fontColor=default;" edge="1" parent="1" source="xtmOlTIrvWH5SZ30aOi--1" target="xtmOlTIrvWH5SZ30aOi--4">
          <mxGeometry relative="1" as="geometry" />
        </mxCell>
        <mxCell id="xtmOlTIrvWH5SZ30aOi--1" value="" style="sketch=0;points=[[0,0,0],[0.25,0,0],[0.5,0,0],[0.75,0,0],[1,0,0],[0,1,0],[0.25,1,0],[0.5,1,0],[0.75,1,0],[1,1,0],[0,0.25,0],[0,0.5,0],[0,0.75,0],[1,0.25,0],[1,0.5,0],[1,0.75,0]];outlineConnect=0;fontColor=#232F3E;gradientColor=#F78E04;gradientDirection=north;fillColor=#D05C17;strokeColor=#ffffff;dashed=0;verticalLabelPosition=bottom;verticalAlign=top;align=center;html=1;fontSize=12;fontStyle=0;aspect=fixed;shape=mxgraph.aws4.resourceIcon;resIcon=mxgraph.aws4.eks;" vertex="1" parent="1">
          <mxGeometry x="70" y="220" width="78" height="78" as="geometry" />
        </mxCell>
        <mxCell id="xtmOlTIrvWH5SZ30aOi--16" style="rounded=0;orthogonalLoop=1;jettySize=auto;html=1;exitX=0.995;exitY=0.63;exitDx=0;exitDy=0;exitPerimeter=0;fontFamily=Helvetica;fontSize=12;fontColor=default;" edge="1" parent="1" source="xtmOlTIrvWH5SZ30aOi--2" target="xtmOlTIrvWH5SZ30aOi--14">
          <mxGeometry relative="1" as="geometry">
            <mxPoint x="460" y="230" as="targetPoint" />
          </mxGeometry>
        </mxCell>
        <mxCell id="xtmOlTIrvWH5SZ30aOi--2" value="Node Shipping&lt;br&gt;" style="sketch=0;html=1;dashed=0;whitespace=wrap;fillColor=#2875E2;strokeColor=#ffffff;points=[[0.005,0.63,0],[0.1,0.2,0],[0.9,0.2,0],[0.5,0,0],[0.995,0.63,0],[0.72,0.99,0],[0.5,1,0],[0.28,0.99,0]];verticalLabelPosition=bottom;align=center;verticalAlign=top;shape=mxgraph.kubernetes.icon;prIcon=node" vertex="1" parent="1">
          <mxGeometry x="280" y="90" width="50" height="48" as="geometry" />
        </mxCell>
        <mxCell id="xtmOlTIrvWH5SZ30aOi--17" style="rounded=0;orthogonalLoop=1;jettySize=auto;html=1;exitX=0.995;exitY=0.63;exitDx=0;exitDy=0;exitPerimeter=0;fontFamily=Helvetica;fontSize=12;fontColor=default;" edge="1" parent="1" source="xtmOlTIrvWH5SZ30aOi--3" target="xtmOlTIrvWH5SZ30aOi--14">
          <mxGeometry relative="1" as="geometry" />
        </mxCell>
        <mxCell id="xtmOlTIrvWH5SZ30aOi--3" value="Node Products" style="sketch=0;html=1;dashed=0;whitespace=wrap;fillColor=#2875E2;strokeColor=#ffffff;points=[[0.005,0.63,0],[0.1,0.2,0],[0.9,0.2,0],[0.5,0,0],[0.995,0.63,0],[0.72,0.99,0],[0.5,1,0],[0.28,0.99,0]];verticalLabelPosition=bottom;align=center;verticalAlign=top;shape=mxgraph.kubernetes.icon;prIcon=node" vertex="1" parent="1">
          <mxGeometry x="280" y="180" width="50" height="48" as="geometry" />
        </mxCell>
        <mxCell id="xtmOlTIrvWH5SZ30aOi--19" style="rounded=0;orthogonalLoop=1;jettySize=auto;html=1;exitX=0.995;exitY=0.63;exitDx=0;exitDy=0;exitPerimeter=0;fontFamily=Helvetica;fontSize=12;fontColor=default;" edge="1" parent="1" source="xtmOlTIrvWH5SZ30aOi--4" target="xtmOlTIrvWH5SZ30aOi--14">
          <mxGeometry relative="1" as="geometry" />
        </mxCell>
        <mxCell id="xtmOlTIrvWH5SZ30aOi--4" value="Node Orders&lt;br&gt;" style="sketch=0;html=1;dashed=0;whitespace=wrap;fillColor=#2875E2;strokeColor=#ffffff;points=[[0.005,0.63,0],[0.1,0.2,0],[0.9,0.2,0],[0.5,0,0],[0.995,0.63,0],[0.72,0.99,0],[0.5,1,0],[0.28,0.99,0]];verticalLabelPosition=bottom;align=center;verticalAlign=top;shape=mxgraph.kubernetes.icon;prIcon=node" vertex="1" parent="1">
          <mxGeometry x="280" y="370" width="50" height="48" as="geometry" />
        </mxCell>
        <mxCell id="xtmOlTIrvWH5SZ30aOi--18" style="rounded=0;orthogonalLoop=1;jettySize=auto;html=1;exitX=0.995;exitY=0.63;exitDx=0;exitDy=0;exitPerimeter=0;fontFamily=Helvetica;fontSize=12;fontColor=default;" edge="1" parent="1" source="xtmOlTIrvWH5SZ30aOi--5" target="xtmOlTIrvWH5SZ30aOi--14">
          <mxGeometry relative="1" as="geometry" />
        </mxCell>
        <mxCell id="xtmOlTIrvWH5SZ30aOi--5" value="Node Payments&lt;br&gt;" style="sketch=0;html=1;dashed=0;whitespace=wrap;fillColor=#2875E2;strokeColor=#ffffff;points=[[0.005,0.63,0],[0.1,0.2,0],[0.9,0.2,0],[0.5,0,0],[0.995,0.63,0],[0.72,0.99,0],[0.5,1,0],[0.28,0.99,0]];verticalLabelPosition=bottom;align=center;verticalAlign=top;shape=mxgraph.kubernetes.icon;prIcon=node" vertex="1" parent="1">
          <mxGeometry x="280" y="270" width="50" height="48" as="geometry" />
        </mxCell>
        <mxCell id="xtmOlTIrvWH5SZ30aOi--8" style="edgeStyle=orthogonalEdgeStyle;rounded=0;orthogonalLoop=1;jettySize=auto;html=1;exitX=0.5;exitY=1;exitDx=0;exitDy=0;exitPerimeter=0;fontFamily=Helvetica;fontSize=12;fontColor=default;" edge="1" parent="1" source="xtmOlTIrvWH5SZ30aOi--3" target="xtmOlTIrvWH5SZ30aOi--3">
          <mxGeometry relative="1" as="geometry" />
        </mxCell>
        <mxCell id="xtmOlTIrvWH5SZ30aOi--14" value="" style="sketch=0;pointerEvents=1;shadow=0;dashed=0;html=1;strokeColor=none;fillColor=#505050;labelPosition=center;verticalLabelPosition=bottom;verticalAlign=top;outlineConnect=0;align=center;shape=mxgraph.office.concepts.web_page;fontFamily=Helvetica;fontSize=12;fontColor=default;" vertex="1" parent="1">
          <mxGeometry x="500" y="216" width="50" height="54" as="geometry" />
        </mxCell>
        <mxCell id="xtmOlTIrvWH5SZ30aOi--20" style="rounded=0;orthogonalLoop=1;jettySize=auto;html=1;exitX=0;exitY=0.5;exitDx=0;exitDy=0;exitPerimeter=0;fontFamily=Helvetica;fontSize=12;fontColor=default;" edge="1" parent="1" source="xtmOlTIrvWH5SZ30aOi--15" target="xtmOlTIrvWH5SZ30aOi--14">
          <mxGeometry relative="1" as="geometry" />
        </mxCell>
        <mxCell id="xtmOlTIrvWH5SZ30aOi--15" value="User" style="html=1;whiteSpace=wrap;strokeColor=none;fillColor=#0079D6;labelPosition=center;verticalLabelPosition=middle;verticalAlign=top;align=center;fontSize=12;outlineConnect=0;spacingTop=-6;fontColor=#FFFFFF;sketch=0;shape=mxgraph.sitemap.user;dashed=0;fontFamily=Helvetica;" vertex="1" parent="1">
          <mxGeometry x="670" y="200" width="120" height="70" as="geometry" />
        </mxCell>
      </root>
    </mxGraphModel>
  </diagram>
</mxfile>
